<svg xmlns="http://www.w3.org/2000/svg" xmlns:xlink="http://www.w3.org/1999/xlink" width="3780" zoomAndPan="magnify" viewBox="0 0 2835 1417.499962" height="1890" preserveAspectRatio="xMidYMid meet" version="1.0"><defs><g/><clipPath id="47ed80c970"><path d="M 258 0 L 2834.5 0 L 2834.5 1097 L 258 1097 Z M 258 0 " clip-rule="nonzero"/></clipPath><clipPath id="ae0387bddb"><path d="M 1946 416 L 2132 416 L 2132 627 L 1946 627 Z M 1946 416 " clip-rule="nonzero"/></clipPath><clipPath id="63a5789f86"><path d="M 2135.207031 -67.039062 L 2637.503906 517.65625 L 2254.722656 846.496094 L 1752.425781 261.800781 Z M 2135.207031 -67.039062 " clip-rule="nonzero"/></clipPath><clipPath id="9adc924c48"><path d="M 2135.207031 -67.039062 L 2637.503906 517.65625 L 2254.722656 846.496094 L 1752.425781 261.800781 Z M 2135.207031 -67.039062 " clip-rule="nonzero"/></clipPath><clipPath id="2564cf6958"><path d="M 1958 247 L 2302 247 L 2302 640 L 1958 640 Z M 1958 247 " clip-rule="nonzero"/></clipPath><clipPath id="c6a0ebcce9"><path d="M 2135.207031 -67.039062 L 2637.503906 517.65625 L 2254.722656 846.496094 L 1752.425781 261.800781 Z M 2135.207031 -67.039062 " clip-rule="nonzero"/></clipPath><clipPath id="41eb464d81"><path d="M 2135.207031 -67.039062 L 2637.503906 517.65625 L 2254.722656 846.496094 L 1752.425781 261.800781 Z M 2135.207031 -67.039062 " clip-rule="nonzero"/></clipPath><clipPath id="d67e25dee4"><path d="M 1972 69 L 2480 69 L 2480 654 L 1972 654 Z M 1972 69 " clip-rule="nonzero"/></clipPath><clipPath id="f6137b51d3"><path d="M 2135.207031 -67.039062 L 2637.503906 517.65625 L 2254.722656 846.496094 L 1752.425781 261.800781 Z M 2135.207031 -67.039062 " clip-rule="nonzero"/></clipPath><clipPath id="93a7b4925a"><path d="M 2135.207031 -67.039062 L 2637.503906 517.65625 L 2254.722656 846.496094 L 1752.425781 261.800781 Z M 2135.207031 -67.039062 " clip-rule="nonzero"/></clipPath><clipPath id="e341129626"><path d="M 108 876 L 1929 876 L 1929 1096.171875 L 108 1096.171875 Z M 108 876 " clip-rule="nonzero"/></clipPath><clipPath id="38bcd6f083"><rect x="0" width="1821" y="0" height="221"/></clipPath><clipPath id="49179f6b62"><rect x="0" width="2577" y="0" height="1097"/></clipPath></defs><g clip-path="url(#47ed80c970)"><g transform="matrix(1, 0, 0, 1, 258, 0)"><g clip-path="url(#49179f6b62)"><g fill="#ffffff" fill-opacity="1"><g transform="translate(1.620196, 870.463212)"><g><path d="M 245.1875 -222.890625 C 239.300781 -233.722656 230.863281 -242.003906 219.875 -247.734375 C 208.882812 -253.460938 195.957031 -256.328125 181.09375 -256.328125 C 155.40625 -256.328125 134.820312 -247.890625 119.34375 -231.015625 C 103.863281 -214.148438 96.125 -191.628906 96.125 -163.453125 C 96.125 -133.421875 104.25 -109.96875 120.5 -93.09375 C 136.75 -76.226562 159.113281 -67.796875 187.59375 -67.796875 C 207.101562 -67.796875 223.585938 -72.75 237.046875 -82.65625 C 250.515625 -92.5625 260.347656 -106.800781 266.546875 -125.375 L 165.78125 -125.375 L 165.78125 -183.890625 L 338.515625 -183.890625 L 338.515625 -110.046875 C 332.628906 -90.234375 322.644531 -71.8125 308.5625 -54.78125 C 294.476562 -37.757812 276.597656 -23.984375 254.921875 -13.453125 C 233.253906 -2.929688 208.800781 2.328125 181.5625 2.328125 C 149.363281 2.328125 120.648438 -4.710938 95.421875 -18.796875 C 70.191406 -32.890625 50.535156 -52.472656 36.453125 -77.546875 C 22.367188 -102.617188 15.328125 -131.253906 15.328125 -163.453125 C 15.328125 -195.648438 22.367188 -224.363281 36.453125 -249.59375 C 50.535156 -274.820312 70.113281 -294.476562 95.1875 -308.5625 C 120.269531 -322.644531 148.90625 -329.6875 181.09375 -329.6875 C 220.101562 -329.6875 252.992188 -320.242188 279.765625 -301.359375 C 306.546875 -282.484375 324.273438 -256.328125 332.953125 -222.890625 Z M 245.1875 -222.890625 "/></g></g></g><g fill="#ffffff" fill-opacity="1"><g transform="translate(401.893687, 870.463212)"><g><path d="M 397.953125 -325.984375 L 397.953125 0 L 318.546875 0 L 318.546875 -195.5 L 245.640625 0 L 181.5625 0 L 108.203125 -195.953125 L 108.203125 0 L 28.796875 0 L 28.796875 -325.984375 L 122.59375 -325.984375 L 214.0625 -100.296875 L 304.625 -325.984375 Z M 397.953125 -325.984375 "/></g></g></g><g fill="#ffffff" fill-opacity="1"><g transform="translate(874.606434, 870.463212)"><g><path d="M 65.9375 3.71875 C 52.007812 3.71875 40.632812 -0.378906 31.8125 -8.578125 C 22.988281 -16.785156 18.578125 -26.925781 18.578125 -39 C 18.578125 -51.382812 22.988281 -61.753906 31.8125 -70.109375 C 40.632812 -78.472656 52.007812 -82.65625 65.9375 -82.65625 C 79.5625 -82.65625 90.785156 -78.472656 99.609375 -70.109375 C 108.429688 -61.753906 112.84375 -51.382812 112.84375 -39 C 112.84375 -26.925781 108.429688 -16.785156 99.609375 -8.578125 C 90.785156 -0.378906 79.5625 3.71875 65.9375 3.71875 Z M 65.9375 3.71875 "/></g></g></g><g fill="#ffffff" fill-opacity="1"><g transform="translate(1051.990293, 870.463212)"><g><path d="M 320.40625 0 L 241 0 L 108.203125 -201.0625 L 108.203125 0 L 28.796875 0 L 28.796875 -325.984375 L 108.203125 -325.984375 L 241 -123.984375 L 241 -325.984375 L 320.40625 -325.984375 Z M 320.40625 0 "/></g></g></g><g fill="#ffffff" fill-opacity="1"><g transform="translate(1447.620234, 870.463212)"><g><path d="M 108.203125 -262.359375 L 108.203125 -196.421875 L 214.53125 -196.421875 L 214.53125 -135.125 L 108.203125 -135.125 L 108.203125 -63.625 L 228.46875 -63.625 L 228.46875 0 L 28.796875 0 L 28.796875 -325.984375 L 228.46875 -325.984375 L 228.46875 -262.359375 Z M 108.203125 -262.359375 "/></g></g></g><g fill="#ffffff" fill-opacity="1"><g transform="translate(1745.271786, 870.463212)"><g><path d="M 263.296875 -325.984375 L 263.296875 -262.359375 L 176.921875 -262.359375 L 176.921875 0 L 97.515625 0 L 97.515625 -262.359375 L 11.140625 -262.359375 L 11.140625 -325.984375 Z M 263.296875 -325.984375 "/></g></g></g><g clip-path="url(#ae0387bddb)"><g clip-path="url(#63a5789f86)"><g clip-path="url(#9adc924c48)"><path fill="#1ed760" d="M 1950.949219 416.597656 L 1946.132812 480.273438 C 1948.210938 480.632812 1950.277344 481.039062 1952.339844 481.488281 C 1954.398438 481.9375 1956.449219 482.429688 1958.488281 482.96875 C 1960.523438 483.503906 1962.550781 484.085938 1964.566406 484.710938 C 1966.578125 485.335938 1968.578125 486.003906 1970.5625 486.714844 C 1972.546875 487.425781 1974.515625 488.179688 1976.46875 488.976562 C 1978.421875 489.773438 1980.355469 490.609375 1982.269531 491.488281 C 1984.1875 492.367188 1986.082031 493.289062 1987.960938 494.25 C 1989.835938 495.210938 1991.691406 496.210938 1993.523438 497.253906 C 1995.359375 498.292969 1997.167969 499.371094 1998.957031 500.492188 C 2000.742188 501.609375 2002.503906 502.769531 2004.242188 503.960938 C 2005.976562 505.15625 2007.6875 506.390625 2009.371094 507.65625 C 2011.058594 508.925781 2012.710938 510.230469 2014.339844 511.570312 C 2015.96875 512.910156 2017.566406 514.285156 2019.136719 515.695312 C 2020.703125 517.101562 2022.242188 518.542969 2023.746094 520.019531 C 2025.253906 521.496094 2026.726562 523 2028.167969 524.539062 C 2029.609375 526.078125 2031.019531 527.648438 2032.390625 529.246094 C 2033.765625 530.84375 2035.105469 532.472656 2036.410156 534.128906 C 2037.710938 535.789062 2038.980469 537.472656 2040.210938 539.183594 C 2041.441406 540.894531 2042.636719 542.632812 2043.792969 544.394531 C 2044.949219 546.15625 2046.066406 547.945312 2047.144531 549.757812 C 2048.222656 551.566406 2049.265625 553.402344 2050.265625 555.257812 C 2051.265625 557.113281 2052.222656 558.988281 2053.144531 560.886719 C 2054.0625 562.785156 2054.941406 564.699219 2055.777344 566.636719 C 2056.613281 568.570312 2057.410156 570.523438 2058.160156 572.492188 C 2058.914062 574.460938 2059.625 576.445312 2060.292969 578.445312 C 2060.957031 580.445312 2061.582031 582.460938 2062.164062 584.488281 C 2062.742188 586.511719 2063.28125 588.550781 2063.773438 590.601562 C 2064.265625 592.652344 2064.714844 594.710938 2065.117188 596.78125 C 2065.519531 598.851562 2065.878906 600.925781 2066.195312 603.011719 C 2066.507812 605.097656 2066.777344 607.1875 2067 609.285156 C 2067.226562 611.378906 2067.40625 613.480469 2067.539062 615.582031 C 2067.671875 617.6875 2067.761719 619.792969 2067.804688 621.902344 L 2131.46875 626.726562 C 2131.496094 623.578125 2131.453125 620.429688 2131.339844 617.28125 C 2131.226562 614.132812 2131.042969 610.988281 2130.785156 607.847656 C 2130.53125 604.707031 2130.207031 601.574219 2129.8125 598.449219 C 2129.417969 595.324219 2128.949219 592.207031 2128.414062 589.105469 C 2127.878906 586 2127.273438 582.910156 2126.601562 579.832031 C 2125.925781 576.753906 2125.183594 573.691406 2124.371094 570.648438 C 2123.558594 567.605469 2122.679688 564.582031 2121.734375 561.578125 C 2120.785156 558.570312 2119.769531 555.589844 2118.691406 552.632812 C 2117.609375 549.671875 2116.460938 546.738281 2115.246094 543.832031 C 2114.035156 540.925781 2112.757812 538.046875 2111.414062 535.195312 C 2110.070312 532.347656 2108.664062 529.527344 2107.195312 526.742188 C 2105.726562 523.953125 2104.195312 521.203125 2102.601562 518.484375 C 2101.011719 515.765625 2099.355469 513.085938 2097.644531 510.441406 C 2095.929688 507.796875 2094.160156 505.195312 2092.328125 502.628906 C 2090.496094 500.066406 2088.609375 497.542969 2086.667969 495.0625 C 2084.722656 492.585938 2082.726562 490.148438 2080.671875 487.761719 C 2078.621094 485.371094 2076.515625 483.027344 2074.355469 480.734375 C 2072.199219 478.4375 2069.988281 476.191406 2067.730469 473.996094 C 2065.472656 471.800781 2063.164062 469.65625 2060.808594 467.566406 C 2058.453125 465.472656 2056.054688 463.433594 2053.605469 461.449219 C 2051.160156 459.464844 2048.667969 457.535156 2046.136719 455.664062 C 2043.601562 453.792969 2041.027344 451.976562 2038.414062 450.21875 C 2035.796875 448.464844 2033.144531 446.765625 2030.453125 445.128906 C 2027.761719 443.492188 2025.035156 441.914062 2022.273438 440.398438 C 2019.511719 438.882812 2016.714844 437.433594 2013.890625 436.042969 C 2011.0625 434.652344 2008.203125 433.328125 2005.316406 432.066406 C 2002.429688 430.804688 1999.515625 429.609375 1996.578125 428.476562 C 1993.636719 427.347656 1990.671875 426.285156 1987.683594 425.285156 C 1984.695312 424.289062 1981.6875 423.359375 1978.65625 422.496094 C 1975.625 421.636719 1972.578125 420.84375 1969.511719 420.117188 C 1966.445312 419.390625 1963.367188 418.734375 1960.269531 418.148438 C 1957.175781 417.5625 1954.070312 417.046875 1950.949219 416.597656 Z M 1950.949219 416.597656 " fill-opacity="1" fill-rule="nonzero"/></g></g></g><g clip-path="url(#2564cf6958)"><g clip-path="url(#c6a0ebcce9)"><g clip-path="url(#41eb464d81)"><path fill="#1ed760" d="M 2301.40625 639.601562 C 2301.632812 633.671875 2301.722656 627.738281 2301.671875 621.808594 C 2301.625 615.875 2301.433594 609.945312 2301.109375 604.019531 C 2300.78125 598.097656 2300.316406 592.183594 2299.710938 586.28125 C 2299.105469 580.378906 2298.363281 574.496094 2297.484375 568.625 C 2296.605469 562.757812 2295.589844 556.914062 2294.4375 551.09375 C 2293.285156 545.273438 2291.996094 539.484375 2290.570312 533.726562 C 2289.148438 527.964844 2287.589844 522.242188 2285.898438 516.554688 C 2284.207031 510.867188 2282.382812 505.226562 2280.425781 499.625 C 2278.46875 494.023438 2276.382812 488.46875 2274.167969 482.964844 C 2271.953125 477.460938 2269.609375 472.011719 2267.136719 466.617188 C 2264.667969 461.222656 2262.070312 455.890625 2259.351562 450.617188 C 2256.628906 445.34375 2253.789062 440.140625 2250.824219 435 C 2247.859375 429.859375 2244.777344 424.792969 2241.574219 419.796875 C 2238.375 414.800781 2235.058594 409.882812 2231.625 405.042969 C 2228.195312 400.203125 2224.652344 395.445312 2220.996094 390.773438 C 2217.34375 386.097656 2213.582031 381.511719 2209.714844 377.011719 C 2205.84375 372.515625 2201.871094 368.109375 2197.796875 363.796875 C 2193.722656 359.484375 2189.550781 355.269531 2185.277344 351.152344 C 2181.003906 347.035156 2176.636719 343.019531 2172.179688 339.109375 C 2167.71875 335.195312 2163.167969 331.390625 2158.53125 327.6875 C 2153.890625 323.988281 2149.167969 320.398438 2144.363281 316.921875 C 2139.558594 313.441406 2134.671875 310.078125 2129.707031 306.828125 C 2124.746094 303.578125 2119.707031 300.445312 2114.597656 297.429688 C 2109.488281 294.417969 2104.308594 291.523438 2099.0625 288.75 C 2093.816406 285.980469 2088.507812 283.332031 2083.140625 280.808594 C 2077.769531 278.285156 2072.34375 275.886719 2066.863281 273.617188 C 2061.378906 271.347656 2055.847656 269.207031 2050.265625 267.195312 C 2044.683594 265.1875 2039.058594 263.308594 2033.386719 261.558594 C 2027.71875 259.8125 2022.011719 258.199219 2016.265625 256.71875 C 2010.519531 255.238281 2004.742188 253.890625 1998.933594 252.683594 C 1993.125 251.472656 1987.292969 250.398438 1981.433594 249.460938 C 1975.574219 248.523438 1969.695312 247.726562 1963.800781 247.0625 L 1958.996094 310.601562 C 1963.851562 311.179688 1968.691406 311.875 1973.515625 312.679688 C 1978.339844 313.484375 1983.144531 314.402344 1987.925781 315.429688 C 1992.707031 316.457031 1997.464844 317.597656 2002.191406 318.84375 C 2006.921875 320.09375 2011.621094 321.449219 2016.285156 322.917969 C 2020.953125 324.382812 2025.582031 325.957031 2030.175781 327.636719 C 2034.769531 329.316406 2039.320312 331.101562 2043.832031 332.996094 C 2048.34375 334.886719 2052.808594 336.882812 2057.226562 338.980469 C 2061.644531 341.078125 2066.011719 343.277344 2070.328125 345.578125 C 2074.644531 347.878906 2078.90625 350.277344 2083.109375 352.777344 C 2087.316406 355.273438 2091.460938 357.867188 2095.546875 360.558594 C 2099.628906 363.25 2103.652344 366.03125 2107.605469 368.910156 C 2111.5625 371.785156 2115.449219 374.753906 2119.269531 377.808594 C 2123.085938 380.867188 2126.832031 384.007812 2130.503906 387.238281 C 2134.179688 390.46875 2137.773438 393.78125 2141.292969 397.179688 C 2144.8125 400.578125 2148.253906 404.054688 2151.609375 407.609375 C 2154.96875 411.164062 2158.242188 414.796875 2161.433594 418.503906 C 2164.621094 422.210938 2167.726562 425.992188 2170.738281 429.84375 C 2173.753906 433.695312 2176.679688 437.613281 2179.511719 441.601562 C 2182.34375 445.589844 2185.085938 449.640625 2187.730469 453.753906 C 2190.375 457.867188 2192.925781 462.042969 2195.378906 466.273438 C 2197.828125 470.503906 2200.183594 474.792969 2202.4375 479.132812 C 2204.6875 483.472656 2206.839844 487.867188 2208.890625 492.304688 C 2210.941406 496.746094 2212.886719 501.234375 2214.730469 505.765625 C 2216.570312 510.296875 2218.308594 514.867188 2219.9375 519.476562 C 2221.570312 524.089844 2223.089844 528.738281 2224.507812 533.417969 C 2225.921875 538.101562 2227.226562 542.8125 2228.425781 547.554688 C 2229.621094 552.296875 2230.707031 557.066406 2231.683594 561.859375 C 2232.660156 566.652344 2233.523438 571.464844 2234.277344 576.296875 C 2235.03125 581.128906 2235.671875 585.976562 2236.199219 590.839844 C 2236.726562 595.703125 2237.140625 600.574219 2237.445312 605.457031 C 2237.746094 610.339844 2237.9375 615.226562 2238.011719 620.117188 C 2238.085938 625.007812 2238.050781 629.898438 2237.898438 634.785156 Z M 2301.40625 639.601562 " fill-opacity="1" fill-rule="nonzero"/></g></g></g><g clip-path="url(#d67e25dee4)"><g clip-path="url(#f6137b51d3)"><g clip-path="url(#93a7b4925a)"><path fill="#1ed760" d="M 2479.023438 653.074219 C 2479.460938 644.238281 2479.6875 635.394531 2479.707031 626.546875 C 2479.722656 617.699219 2479.53125 608.855469 2479.128906 600.015625 C 2478.726562 591.179688 2478.117188 582.355469 2477.296875 573.546875 C 2476.476562 564.734375 2475.445312 555.949219 2474.210938 547.191406 C 2472.972656 538.429688 2471.527344 529.703125 2469.875 521.011719 C 2468.222656 512.320312 2466.367188 503.671875 2464.304688 495.066406 C 2462.242188 486.464844 2459.976562 477.914062 2457.511719 469.417969 C 2455.042969 460.917969 2452.375 452.488281 2449.507812 444.117188 C 2446.636719 435.746094 2443.574219 427.449219 2440.3125 419.226562 C 2437.050781 411 2433.59375 402.859375 2429.945312 394.796875 C 2426.296875 386.738281 2422.460938 378.769531 2418.433594 370.890625 C 2414.40625 363.011719 2410.195312 355.234375 2405.800781 347.554688 C 2401.40625 339.875 2396.828125 332.308594 2392.074219 324.84375 C 2387.320312 317.382812 2382.390625 310.039062 2377.285156 302.8125 C 2372.183594 295.585938 2366.910156 288.484375 2361.46875 281.507812 C 2356.03125 274.527344 2350.425781 267.683594 2344.660156 260.972656 C 2338.894531 254.261719 2332.976562 247.691406 2326.898438 241.261719 C 2320.820312 234.832031 2314.59375 228.550781 2308.21875 222.414062 C 2301.84375 216.28125 2295.324219 210.300781 2288.667969 204.472656 C 2282.007812 198.648438 2275.214844 192.984375 2268.285156 187.480469 C 2261.355469 181.980469 2254.300781 176.644531 2247.121094 171.476562 C 2239.941406 166.308594 2232.640625 161.3125 2225.222656 156.492188 C 2217.804688 151.667969 2210.273438 147.027344 2202.636719 142.5625 C 2194.996094 138.097656 2187.257812 133.816406 2179.414062 129.71875 C 2171.574219 125.621094 2163.636719 121.714844 2155.609375 117.992188 C 2147.582031 114.273438 2139.472656 110.746094 2131.277344 107.410156 C 2123.082031 104.074219 2114.8125 100.933594 2106.46875 97.992188 C 2098.125 95.050781 2089.71875 92.304688 2081.242188 89.761719 C 2072.769531 87.21875 2064.238281 84.875 2055.652344 82.738281 C 2047.070312 80.597656 2038.4375 78.664062 2029.761719 76.933594 C 2021.085938 75.207031 2012.371094 73.683594 2003.621094 72.367188 C 1994.871094 71.050781 1986.097656 69.941406 1977.296875 69.042969 L 1972.484375 132.53125 C 1980.246094 133.351562 1987.984375 134.351562 1995.699219 135.539062 C 2003.414062 136.722656 2011.097656 138.089844 2018.746094 139.636719 C 2026.398438 141.1875 2034.007812 142.914062 2041.574219 144.820312 C 2049.144531 146.730469 2056.664062 148.816406 2064.132812 151.078125 C 2071.601562 153.339844 2079.015625 155.78125 2086.371094 158.394531 C 2093.726562 161.007812 2101.015625 163.792969 2108.238281 166.75 C 2115.460938 169.707031 2122.609375 172.832031 2129.6875 176.128906 C 2136.761719 179.425781 2143.753906 182.886719 2150.667969 186.511719 C 2157.578125 190.136719 2164.402344 193.925781 2171.136719 197.875 C 2177.867188 201.820312 2184.503906 205.925781 2191.042969 210.1875 C 2197.582031 214.449219 2204.015625 218.863281 2210.347656 223.429688 C 2216.679688 227.996094 2222.898438 232.710938 2229.003906 237.570312 C 2235.113281 242.429688 2241.101562 247.429688 2246.976562 252.574219 C 2252.847656 257.714844 2258.59375 262.996094 2264.214844 268.410156 C 2269.835938 273.824219 2275.328125 279.367188 2280.6875 285.039062 C 2286.050781 290.714844 2291.273438 296.511719 2296.359375 302.433594 C 2301.445312 308.351562 2306.386719 314.390625 2311.1875 320.542969 C 2315.992188 326.699219 2320.644531 332.964844 2325.148438 339.335938 C 2329.652344 345.710938 2334.003906 352.1875 2338.203125 358.769531 C 2342.402344 365.347656 2346.445312 372.023438 2350.328125 378.792969 C 2354.210938 385.5625 2357.933594 392.421875 2361.492188 399.371094 C 2365.050781 406.316406 2368.445312 413.34375 2371.671875 420.449219 C 2374.902344 427.554688 2377.960938 434.734375 2380.847656 441.988281 C 2383.734375 449.238281 2386.453125 456.554688 2388.992188 463.933594 C 2391.535156 471.3125 2393.902344 478.75 2396.09375 486.238281 C 2398.285156 493.730469 2400.300781 501.269531 2402.132812 508.855469 C 2403.96875 516.441406 2405.625 524.070312 2407.097656 531.734375 C 2408.574219 539.398438 2409.867188 547.09375 2410.976562 554.820312 C 2412.089844 562.546875 2413.015625 570.292969 2413.761719 578.0625 C 2414.507812 585.832031 2415.070312 593.617188 2415.445312 601.414062 C 2415.824219 609.207031 2416.015625 617.007812 2416.023438 624.816406 C 2416.035156 632.621094 2415.859375 640.421875 2415.5 648.21875 Z M 2479.023438 653.074219 " fill-opacity="1" fill-rule="nonzero"/></g></g></g><g clip-path="url(#e341129626)"><g transform="matrix(1, 0, 0, 1, 108, 876)"><g clip-path="url(#38bcd6f083)"><g fill="#1ed760" fill-opacity="1"><g transform="translate(0.387117, 164.666613)"><g><path d="M 79.3125 -109.25 L 79.3125 -97.65625 L 49.53125 -97.65625 L 49.53125 0 L 35.265625 0 L 35.265625 -97.65625 L 5.328125 -97.65625 L 5.328125 -109.25 Z M 79.3125 -109.25 "/></g></g></g><g fill="#1ed760" fill-opacity="1"><g transform="translate(100.865459, 164.666613)"><g><path d="M 26.328125 -71.953125 C 28.835938 -76.859375 32.414062 -80.671875 37.0625 -83.390625 C 41.71875 -86.109375 47.390625 -87.46875 54.078125 -87.46875 L 54.078125 -72.734375 L 50.3125 -72.734375 C 34.320312 -72.734375 26.328125 -64.0625 26.328125 -46.71875 L 26.328125 0 L 12.0625 0 L 12.0625 -85.90625 L 26.328125 -85.90625 Z M 26.328125 -71.953125 "/></g></g></g><g fill="#1ed760" fill-opacity="1"><g transform="translate(175.009595, 164.666613)"><g><path d="M 88.25 -85.90625 L 88.25 0 L 73.984375 0 L 73.984375 -12.703125 C 71.265625 -8.304688 67.472656 -4.878906 62.609375 -2.421875 C 57.753906 0.0234375 52.40625 1.25 46.5625 1.25 C 39.863281 1.25 33.847656 -0.128906 28.515625 -2.890625 C 23.191406 -5.660156 18.988281 -9.816406 15.90625 -15.359375 C 12.820312 -20.898438 11.28125 -27.640625 11.28125 -35.578125 L 11.28125 -85.90625 L 25.390625 -85.90625 L 25.390625 -37.46875 C 25.390625 -29 27.53125 -22.488281 31.8125 -17.9375 C 36.101562 -13.394531 41.957031 -11.125 49.375 -11.125 C 57 -11.125 63.003906 -13.472656 67.390625 -18.171875 C 71.785156 -22.878906 73.984375 -29.726562 73.984375 -38.71875 L 73.984375 -85.90625 Z M 88.25 -85.90625 "/></g></g></g><g fill="#1ed760" fill-opacity="1"><g transform="translate(291.006301, 164.666613)"><g><path d="M 42.484375 1.40625 C 35.898438 1.40625 29.992188 0.285156 24.765625 -1.953125 C 19.535156 -4.203125 15.40625 -7.335938 12.375 -11.359375 C 9.351562 -15.390625 7.6875 -20.015625 7.375 -25.234375 L 22.109375 -25.234375 C 22.523438 -20.953125 24.535156 -17.453125 28.140625 -14.734375 C 31.742188 -12.015625 36.472656 -10.65625 42.328125 -10.65625 C 47.753906 -10.65625 52.035156 -11.859375 55.171875 -14.265625 C 58.304688 -16.671875 59.875 -19.703125 59.875 -23.359375 C 59.875 -27.117188 58.203125 -29.910156 54.859375 -31.734375 C 51.515625 -33.566406 46.34375 -35.375 39.34375 -37.15625 C 32.96875 -38.820312 27.769531 -40.515625 23.75 -42.234375 C 19.726562 -43.960938 16.28125 -46.523438 13.40625 -49.921875 C 10.53125 -53.316406 9.09375 -57.785156 9.09375 -63.328125 C 9.09375 -67.710938 10.394531 -71.734375 13 -75.390625 C 15.613281 -79.054688 19.320312 -81.957031 24.125 -84.09375 C 28.9375 -86.238281 34.425781 -87.3125 40.59375 -87.3125 C 50.101562 -87.3125 57.785156 -84.90625 63.640625 -80.09375 C 69.492188 -75.289062 72.628906 -68.707031 73.046875 -60.34375 L 58.78125 -60.34375 C 58.46875 -64.84375 56.664062 -68.445312 53.375 -71.15625 C 50.082031 -73.875 45.664062 -75.234375 40.125 -75.234375 C 35.007812 -75.234375 30.9375 -74.132812 27.90625 -71.9375 C 24.875 -69.75 23.359375 -66.878906 23.359375 -63.328125 C 23.359375 -60.503906 24.269531 -58.175781 26.09375 -56.34375 C 27.925781 -54.519531 30.226562 -53.054688 33 -51.953125 C 35.769531 -50.859375 39.609375 -49.632812 44.515625 -48.28125 C 50.679688 -46.601562 55.695312 -44.953125 59.5625 -43.328125 C 63.425781 -41.710938 66.742188 -39.285156 69.515625 -36.046875 C 72.285156 -32.804688 73.722656 -28.578125 73.828125 -23.359375 C 73.828125 -18.648438 72.519531 -14.414062 69.90625 -10.65625 C 67.289062 -6.894531 63.609375 -3.941406 58.859375 -1.796875 C 54.109375 0.335938 48.648438 1.40625 42.484375 1.40625 Z M 42.484375 1.40625 "/></g></g></g><g fill="#1ed760" fill-opacity="1"><g transform="translate(388.50638, 164.666613)"><g><path d="M 29.46875 -74.140625 L 29.46875 -23.515625 C 29.46875 -19.335938 30.351562 -16.382812 32.125 -14.65625 C 33.90625 -12.925781 36.988281 -12.0625 41.375 -12.0625 L 51.890625 -12.0625 L 51.890625 0 L 39.03125 0 C 31.09375 0 25.132812 -1.828125 21.15625 -5.484375 C 17.1875 -9.140625 15.203125 -15.148438 15.203125 -23.515625 L 15.203125 -74.140625 L 4.078125 -74.140625 L 4.078125 -85.90625 L 15.203125 -85.90625 L 15.203125 -107.53125 L 29.46875 -107.53125 L 29.46875 -85.90625 L 51.890625 -85.90625 L 51.890625 -74.140625 Z M 29.46875 -74.140625 "/></g></g></g><g fill="#1ed760" fill-opacity="1"><g transform="translate(461.239733, 164.666613)"><g><path d="M 90.4375 -46.234375 C 90.4375 -43.523438 90.28125 -40.65625 89.96875 -37.625 L 21.3125 -37.625 C 21.84375 -29.15625 24.742188 -22.539062 30.015625 -17.78125 C 35.296875 -13.03125 41.695312 -10.65625 49.21875 -10.65625 C 55.382812 -10.65625 60.53125 -12.09375 64.65625 -14.96875 C 68.78125 -17.84375 71.679688 -21.679688 73.359375 -26.484375 L 88.71875 -26.484375 C 86.414062 -18.234375 81.816406 -11.519531 74.921875 -6.34375 C 68.023438 -1.175781 59.457031 1.40625 49.21875 1.40625 C 41.070312 1.40625 33.785156 -0.421875 27.359375 -4.078125 C 20.929688 -7.734375 15.882812 -12.929688 12.21875 -19.671875 C 8.5625 -26.410156 6.734375 -34.222656 6.734375 -43.109375 C 6.734375 -51.992188 8.507812 -59.78125 12.0625 -66.46875 C 15.625 -73.15625 20.613281 -78.300781 27.03125 -81.90625 C 33.457031 -85.507812 40.851562 -87.3125 49.21875 -87.3125 C 57.375 -87.3125 64.582031 -85.535156 70.84375 -81.984375 C 77.113281 -78.429688 81.945312 -73.546875 85.34375 -67.328125 C 88.738281 -61.109375 90.4375 -54.078125 90.4375 -46.234375 Z M 75.703125 -49.21875 C 75.703125 -54.65625 74.5 -59.332031 72.09375 -63.25 C 69.695312 -67.164062 66.429688 -70.140625 62.296875 -72.171875 C 58.171875 -74.210938 53.601562 -75.234375 48.59375 -75.234375 C 41.382812 -75.234375 35.242188 -72.9375 30.171875 -68.34375 C 25.109375 -63.75 22.207031 -57.375 21.46875 -49.21875 Z M 75.703125 -49.21875 "/></g></g></g><g fill="#1ed760" fill-opacity="1"><g transform="translate(574.101439, 164.666613)"><g><path d="M 6.734375 -43.265625 C 6.734375 -52.046875 8.507812 -59.753906 12.0625 -66.390625 C 15.625 -73.023438 20.507812 -78.171875 26.71875 -81.828125 C 32.9375 -85.484375 39.914062 -87.3125 47.65625 -87.3125 C 54.34375 -87.3125 60.554688 -85.769531 66.296875 -82.6875 C 72.046875 -79.601562 76.4375 -75.550781 79.46875 -70.53125 L 79.46875 -116 L 93.890625 -116 L 93.890625 0 L 79.46875 0 L 79.46875 -16.140625 C 76.644531 -11.023438 72.460938 -6.820312 66.921875 -3.53125 C 61.390625 -0.238281 54.914062 1.40625 47.5 1.40625 C 39.863281 1.40625 32.9375 -0.472656 26.71875 -4.234375 C 20.507812 -7.992188 15.625 -13.269531 12.0625 -20.0625 C 8.507812 -26.851562 6.734375 -34.585938 6.734375 -43.265625 Z M 79.46875 -43.109375 C 79.46875 -49.585938 78.160156 -55.226562 75.546875 -60.03125 C 72.941406 -64.84375 69.414062 -68.523438 64.96875 -71.078125 C 60.53125 -73.640625 55.644531 -74.921875 50.3125 -74.921875 C 44.988281 -74.921875 40.128906 -73.664062 35.734375 -71.15625 C 31.347656 -68.65625 27.847656 -65 25.234375 -60.1875 C 22.617188 -55.382812 21.3125 -49.742188 21.3125 -43.265625 C 21.3125 -36.679688 22.617188 -30.957031 25.234375 -26.09375 C 27.847656 -21.238281 31.347656 -17.53125 35.734375 -14.96875 C 40.128906 -12.40625 44.988281 -11.125 50.3125 -11.125 C 55.644531 -11.125 60.53125 -12.40625 64.96875 -14.96875 C 69.414062 -17.53125 72.941406 -21.238281 75.546875 -26.09375 C 78.160156 -30.957031 79.46875 -36.628906 79.46875 -43.109375 Z M 79.46875 -43.109375 "/></g></g></g><g fill="#1ed760" fill-opacity="1"><g transform="translate(695.741209, 164.666613)"><g/></g></g><g fill="#1ed760" fill-opacity="1"><g transform="translate(753.269687, 164.666613)"><g><path d="M 6.734375 -54.703125 C 6.734375 -65.359375 9.132812 -74.945312 13.9375 -83.46875 C 18.75 -91.988281 25.304688 -98.648438 33.609375 -103.453125 C 41.921875 -108.265625 51.148438 -110.671875 61.296875 -110.671875 C 73.203125 -110.671875 83.597656 -107.796875 92.484375 -102.046875 C 101.367188 -96.296875 107.847656 -88.144531 111.921875 -77.59375 L 94.828125 -77.59375 C 91.796875 -84.175781 87.429688 -89.242188 81.734375 -92.796875 C 76.046875 -96.347656 69.234375 -98.125 61.296875 -98.125 C 53.660156 -98.125 46.8125 -96.347656 40.75 -92.796875 C 34.6875 -89.242188 29.929688 -84.203125 26.484375 -77.671875 C 23.035156 -71.140625 21.3125 -63.484375 21.3125 -54.703125 C 21.3125 -46.035156 23.035156 -38.4375 26.484375 -31.90625 C 29.929688 -25.375 34.6875 -20.328125 40.75 -16.765625 C 46.8125 -13.210938 53.660156 -11.4375 61.296875 -11.4375 C 69.234375 -11.4375 76.046875 -13.1875 81.734375 -16.6875 C 87.429688 -20.1875 91.796875 -25.226562 94.828125 -31.8125 L 111.921875 -31.8125 C 107.847656 -21.363281 101.367188 -13.289062 92.484375 -7.59375 C 83.597656 -1.90625 73.203125 0.9375 61.296875 0.9375 C 51.148438 0.9375 41.921875 -1.4375 33.609375 -6.1875 C 25.304688 -10.945312 18.75 -17.554688 13.9375 -26.015625 C 9.132812 -34.484375 6.734375 -44.046875 6.734375 -54.703125 Z M 6.734375 -54.703125 "/></g></g></g><g fill="#1ed760" fill-opacity="1"><g transform="translate(889.957607, 164.666613)"><g><path d="M 49.53125 1.40625 C 41.488281 1.40625 34.203125 -0.421875 27.671875 -4.078125 C 21.140625 -7.734375 16.015625 -12.929688 12.296875 -19.671875 C 8.585938 -26.410156 6.734375 -34.222656 6.734375 -43.109375 C 6.734375 -51.878906 8.640625 -59.632812 12.453125 -66.375 C 16.273438 -73.125 21.476562 -78.300781 28.0625 -81.90625 C 34.644531 -85.507812 42.007812 -87.3125 50.15625 -87.3125 C 58.3125 -87.3125 65.679688 -85.507812 72.265625 -81.90625 C 78.847656 -78.300781 84.046875 -73.15625 87.859375 -66.46875 C 91.671875 -59.78125 93.578125 -51.992188 93.578125 -43.109375 C 93.578125 -34.222656 91.617188 -26.410156 87.703125 -19.671875 C 83.785156 -12.929688 78.484375 -7.734375 71.796875 -4.078125 C 65.109375 -0.421875 57.6875 1.40625 49.53125 1.40625 Z M 49.53125 -11.125 C 54.65625 -11.125 59.460938 -12.328125 63.953125 -14.734375 C 68.441406 -17.140625 72.070312 -20.742188 74.84375 -25.546875 C 77.613281 -30.359375 79 -36.210938 79 -43.109375 C 79 -50.003906 77.640625 -55.851562 74.921875 -60.65625 C 72.203125 -65.46875 68.648438 -69.046875 64.265625 -71.390625 C 59.878906 -73.742188 55.125 -74.921875 50 -74.921875 C 44.78125 -74.921875 40 -73.742188 35.65625 -71.390625 C 31.320312 -69.046875 27.847656 -65.46875 25.234375 -60.65625 C 22.617188 -55.851562 21.3125 -50.003906 21.3125 -43.109375 C 21.3125 -36.109375 22.59375 -30.203125 25.15625 -25.390625 C 27.71875 -20.585938 31.140625 -17.007812 35.421875 -14.65625 C 39.710938 -12.300781 44.414062 -11.125 49.53125 -11.125 Z M 49.53125 -11.125 "/></g></g></g><g fill="#1ed760" fill-opacity="1"><g transform="translate(1005.9543, 164.666613)"><g><path d="M 53.921875 -87.46875 C 64.367188 -87.46875 72.832031 -84.304688 79.3125 -77.984375 C 85.789062 -71.660156 89.03125 -62.539062 89.03125 -50.625 L 89.03125 0 L 74.921875 0 L 74.921875 -48.59375 C 74.921875 -57.164062 72.78125 -63.722656 68.5 -68.265625 C 64.21875 -72.804688 58.363281 -75.078125 50.9375 -75.078125 C 43.414062 -75.078125 37.429688 -72.722656 32.984375 -68.015625 C 28.546875 -63.316406 26.328125 -56.476562 26.328125 -47.5 L 26.328125 0 L 12.0625 0 L 12.0625 -85.90625 L 26.328125 -85.90625 L 26.328125 -73.671875 C 29.148438 -78.054688 32.988281 -81.453125 37.84375 -83.859375 C 42.707031 -86.265625 48.066406 -87.46875 53.921875 -87.46875 Z M 53.921875 -87.46875 "/></g></g></g><g fill="#1ed760" fill-opacity="1"><g transform="translate(1121.950993, 164.666613)"><g><path d="M 53.921875 -87.46875 C 64.367188 -87.46875 72.832031 -84.304688 79.3125 -77.984375 C 85.789062 -71.660156 89.03125 -62.539062 89.03125 -50.625 L 89.03125 0 L 74.921875 0 L 74.921875 -48.59375 C 74.921875 -57.164062 72.78125 -63.722656 68.5 -68.265625 C 64.21875 -72.804688 58.363281 -75.078125 50.9375 -75.078125 C 43.414062 -75.078125 37.429688 -72.722656 32.984375 -68.015625 C 28.546875 -63.316406 26.328125 -56.476562 26.328125 -47.5 L 26.328125 0 L 12.0625 0 L 12.0625 -85.90625 L 26.328125 -85.90625 L 26.328125 -73.671875 C 29.148438 -78.054688 32.988281 -81.453125 37.84375 -83.859375 C 42.707031 -86.265625 48.066406 -87.46875 53.921875 -87.46875 Z M 53.921875 -87.46875 "/></g></g></g><g fill="#1ed760" fill-opacity="1"><g transform="translate(1237.947796, 164.666613)"><g><path d="M 90.4375 -46.234375 C 90.4375 -43.523438 90.28125 -40.65625 89.96875 -37.625 L 21.3125 -37.625 C 21.84375 -29.15625 24.742188 -22.539062 30.015625 -17.78125 C 35.296875 -13.03125 41.695312 -10.65625 49.21875 -10.65625 C 55.382812 -10.65625 60.53125 -12.09375 64.65625 -14.96875 C 68.78125 -17.84375 71.679688 -21.679688 73.359375 -26.484375 L 88.71875 -26.484375 C 86.414062 -18.234375 81.816406 -11.519531 74.921875 -6.34375 C 68.023438 -1.175781 59.457031 1.40625 49.21875 1.40625 C 41.070312 1.40625 33.785156 -0.421875 27.359375 -4.078125 C 20.929688 -7.734375 15.882812 -12.929688 12.21875 -19.671875 C 8.5625 -26.410156 6.734375 -34.222656 6.734375 -43.109375 C 6.734375 -51.992188 8.507812 -59.78125 12.0625 -66.46875 C 15.625 -73.15625 20.613281 -78.300781 27.03125 -81.90625 C 33.457031 -85.507812 40.851562 -87.3125 49.21875 -87.3125 C 57.375 -87.3125 64.582031 -85.535156 70.84375 -81.984375 C 77.113281 -78.429688 81.945312 -73.546875 85.34375 -67.328125 C 88.738281 -61.109375 90.4375 -54.078125 90.4375 -46.234375 Z M 75.703125 -49.21875 C 75.703125 -54.65625 74.5 -59.332031 72.09375 -63.25 C 69.695312 -67.164062 66.429688 -70.140625 62.296875 -72.171875 C 58.171875 -74.210938 53.601562 -75.234375 48.59375 -75.234375 C 41.382812 -75.234375 35.242188 -72.9375 30.171875 -68.34375 C 25.109375 -63.75 22.207031 -57.375 21.46875 -49.21875 Z M 75.703125 -49.21875 "/></g></g></g><g fill="#1ed760" fill-opacity="1"><g transform="translate(1350.809446, 164.666613)"><g><path d="M 6.734375 -43.109375 C 6.734375 -51.992188 8.507812 -59.753906 12.0625 -66.390625 C 15.625 -73.023438 20.5625 -78.171875 26.875 -81.828125 C 33.195312 -85.484375 40.4375 -87.3125 48.59375 -87.3125 C 59.144531 -87.3125 67.84375 -84.75 74.6875 -79.625 C 81.53125 -74.507812 86.050781 -67.40625 88.25 -58.3125 L 72.890625 -58.3125 C 71.421875 -63.539062 68.570312 -67.664062 64.34375 -70.6875 C 60.113281 -73.71875 54.863281 -75.234375 48.59375 -75.234375 C 40.4375 -75.234375 33.847656 -72.4375 28.828125 -66.84375 C 23.816406 -61.257812 21.3125 -53.347656 21.3125 -43.109375 C 21.3125 -32.765625 23.816406 -24.769531 28.828125 -19.125 C 33.847656 -13.476562 40.4375 -10.65625 48.59375 -10.65625 C 54.863281 -10.65625 60.085938 -12.117188 64.265625 -15.046875 C 68.441406 -17.972656 71.316406 -22.15625 72.890625 -27.59375 L 88.25 -27.59375 C 85.945312 -18.8125 81.347656 -11.78125 74.453125 -6.5 C 67.554688 -1.226562 58.9375 1.40625 48.59375 1.40625 C 40.4375 1.40625 33.195312 -0.421875 26.875 -4.078125 C 20.5625 -7.734375 15.625 -12.90625 12.0625 -19.59375 C 8.507812 -26.28125 6.734375 -34.117188 6.734375 -43.109375 Z M 6.734375 -43.109375 "/></g></g></g><g fill="#1ed760" fill-opacity="1"><g transform="translate(1461.63343, 164.666613)"><g><path d="M 29.46875 -74.140625 L 29.46875 -23.515625 C 29.46875 -19.335938 30.351562 -16.382812 32.125 -14.65625 C 33.90625 -12.925781 36.988281 -12.0625 41.375 -12.0625 L 51.890625 -12.0625 L 51.890625 0 L 39.03125 0 C 31.09375 0 25.132812 -1.828125 21.15625 -5.484375 C 17.1875 -9.140625 15.203125 -15.148438 15.203125 -23.515625 L 15.203125 -74.140625 L 4.078125 -74.140625 L 4.078125 -85.90625 L 15.203125 -85.90625 L 15.203125 -107.53125 L 29.46875 -107.53125 L 29.46875 -85.90625 L 51.890625 -85.90625 L 51.890625 -74.140625 Z M 29.46875 -74.140625 "/></g></g></g><g fill="#1ed760" fill-opacity="1"><g transform="translate(1534.366755, 164.666613)"><g><path d="M 19.4375 -99.84375 C 16.71875 -99.84375 14.414062 -100.785156 12.53125 -102.671875 C 10.65625 -104.554688 9.71875 -106.851562 9.71875 -109.5625 C 9.71875 -112.28125 10.65625 -114.578125 12.53125 -116.453125 C 14.414062 -118.335938 16.71875 -119.28125 19.4375 -119.28125 C 22.050781 -119.28125 24.269531 -118.335938 26.09375 -116.453125 C 27.925781 -114.578125 28.84375 -112.28125 28.84375 -109.5625 C 28.84375 -106.851562 27.925781 -104.554688 26.09375 -102.671875 C 24.269531 -100.785156 22.050781 -99.84375 19.4375 -99.84375 Z M 26.328125 -85.90625 L 26.328125 0 L 12.0625 0 L 12.0625 -85.90625 Z M 26.328125 -85.90625 "/></g></g></g><g fill="#1ed760" fill-opacity="1"><g transform="translate(1588.603438, 164.666613)"><g><path d="M 49.53125 1.40625 C 41.488281 1.40625 34.203125 -0.421875 27.671875 -4.078125 C 21.140625 -7.734375 16.015625 -12.929688 12.296875 -19.671875 C 8.585938 -26.410156 6.734375 -34.222656 6.734375 -43.109375 C 6.734375 -51.878906 8.640625 -59.632812 12.453125 -66.375 C 16.273438 -73.125 21.476562 -78.300781 28.0625 -81.90625 C 34.644531 -85.507812 42.007812 -87.3125 50.15625 -87.3125 C 58.3125 -87.3125 65.679688 -85.507812 72.265625 -81.90625 C 78.847656 -78.300781 84.046875 -73.15625 87.859375 -66.46875 C 91.671875 -59.78125 93.578125 -51.992188 93.578125 -43.109375 C 93.578125 -34.222656 91.617188 -26.410156 87.703125 -19.671875 C 83.785156 -12.929688 78.484375 -7.734375 71.796875 -4.078125 C 65.109375 -0.421875 57.6875 1.40625 49.53125 1.40625 Z M 49.53125 -11.125 C 54.65625 -11.125 59.460938 -12.328125 63.953125 -14.734375 C 68.441406 -17.140625 72.070312 -20.742188 74.84375 -25.546875 C 77.613281 -30.359375 79 -36.210938 79 -43.109375 C 79 -50.003906 77.640625 -55.851562 74.921875 -60.65625 C 72.203125 -65.46875 68.648438 -69.046875 64.265625 -71.390625 C 59.878906 -73.742188 55.125 -74.921875 50 -74.921875 C 44.78125 -74.921875 40 -73.742188 35.65625 -71.390625 C 31.320312 -69.046875 27.847656 -65.46875 25.234375 -60.65625 C 22.617188 -55.851562 21.3125 -50.003906 21.3125 -43.109375 C 21.3125 -36.109375 22.59375 -30.203125 25.15625 -25.390625 C 27.71875 -20.585938 31.140625 -17.007812 35.421875 -14.65625 C 39.710938 -12.300781 44.414062 -11.125 49.53125 -11.125 Z M 49.53125 -11.125 "/></g></g></g><g fill="#1ed760" fill-opacity="1"><g transform="translate(1704.600131, 164.666613)"><g><path d="M 53.921875 -87.46875 C 64.367188 -87.46875 72.832031 -84.304688 79.3125 -77.984375 C 85.789062 -71.660156 89.03125 -62.539062 89.03125 -50.625 L 89.03125 0 L 74.921875 0 L 74.921875 -48.59375 C 74.921875 -57.164062 72.78125 -63.722656 68.5 -68.265625 C 64.21875 -72.804688 58.363281 -75.078125 50.9375 -75.078125 C 43.414062 -75.078125 37.429688 -72.722656 32.984375 -68.015625 C 28.546875 -63.316406 26.328125 -56.476562 26.328125 -47.5 L 26.328125 0 L 12.0625 0 L 12.0625 -85.90625 L 26.328125 -85.90625 L 26.328125 -73.671875 C 29.148438 -78.054688 32.988281 -81.453125 37.84375 -83.859375 C 42.707031 -86.265625 48.066406 -87.46875 53.921875 -87.46875 Z M 53.921875 -87.46875 "/></g></g></g></g></g></g></g></g></g></svg>