<svg xmlns="http://www.w3.org/2000/svg" xmlns:xlink="http://www.w3.org/1999/xlink" width="2000" zoomAndPan="magnify" viewBox="0 0 1500 1499.999933" height="2000" preserveAspectRatio="xMidYMid meet" version="1.0"><path fill="#00bf63" d="M 489.890625 1130.667969 L 574.699219 1215.445312 C 577.753906 1212.925781 580.859375 1210.476562 584.019531 1208.089844 C 587.183594 1205.707031 590.390625 1203.390625 593.652344 1201.144531 C 596.914062 1198.898438 600.21875 1196.726562 603.574219 1194.621094 C 606.929688 1192.519531 610.328125 1190.488281 613.769531 1188.53125 C 617.210938 1186.574219 620.691406 1184.691406 624.214844 1182.886719 C 627.738281 1181.078125 631.296875 1179.347656 634.894531 1177.695312 C 638.492188 1176.042969 642.125 1174.464844 645.789062 1172.96875 C 649.453125 1171.472656 653.148438 1170.054688 656.875 1168.714844 C 660.601562 1167.378906 664.355469 1166.121094 668.136719 1164.945312 C 671.917969 1163.769531 675.71875 1162.675781 679.546875 1161.664062 C 683.375 1160.652344 687.222656 1159.722656 691.089844 1158.875 C 694.957031 1158.03125 698.84375 1157.265625 702.742188 1156.585938 C 706.644531 1155.910156 710.558594 1155.3125 714.484375 1154.804688 C 718.410156 1154.292969 722.34375 1153.867188 726.289062 1153.527344 C 730.234375 1153.1875 734.183594 1152.929688 738.136719 1152.761719 C 742.09375 1152.589844 746.050781 1152.503906 750.011719 1152.503906 C 753.96875 1152.503906 757.925781 1152.589844 761.882812 1152.761719 C 765.835938 1152.929688 769.789062 1153.1875 773.730469 1153.527344 C 777.675781 1153.867188 781.613281 1154.292969 785.539062 1154.804688 C 789.464844 1155.3125 793.378906 1155.910156 797.277344 1156.585938 C 801.179688 1157.265625 805.0625 1158.03125 808.929688 1158.875 C 812.796875 1159.722656 816.644531 1160.652344 820.472656 1161.664062 C 824.300781 1162.675781 828.105469 1163.769531 831.882812 1164.945312 C 835.664062 1166.121094 839.417969 1167.378906 843.144531 1168.714844 C 846.871094 1170.054688 850.566406 1171.472656 854.230469 1172.96875 C 857.898438 1174.464844 861.527344 1176.042969 865.125 1177.695312 C 868.722656 1179.347656 872.28125 1181.078125 875.804688 1182.886719 C 879.328125 1184.691406 882.808594 1186.574219 886.253906 1188.53125 C 889.695312 1190.488281 893.089844 1192.519531 896.445312 1194.621094 C 899.800781 1196.726562 903.105469 1198.898438 906.367188 1201.144531 C 909.628906 1203.390625 912.839844 1205.707031 916 1208.089844 C 919.160156 1210.476562 922.269531 1212.925781 925.324219 1215.445312 L 1010.101562 1130.667969 C 1005.648438 1126.769531 1001.109375 1122.980469 996.488281 1119.289062 C 991.863281 1115.597656 987.160156 1112.011719 982.375 1108.53125 C 977.589844 1105.050781 972.730469 1101.683594 967.796875 1098.421875 C 962.859375 1095.160156 957.851562 1092.011719 952.777344 1088.972656 C 947.699219 1085.9375 942.554688 1083.015625 937.347656 1080.210938 C 932.136719 1077.40625 926.871094 1074.71875 921.539062 1072.152344 C 916.210938 1069.582031 910.828125 1067.132812 905.386719 1064.808594 C 899.949219 1062.480469 894.460938 1060.277344 888.921875 1058.195312 C 883.382812 1056.117188 877.800781 1054.160156 872.175781 1052.332031 C 866.550781 1050.503906 860.886719 1048.800781 855.183594 1047.226562 C 849.480469 1045.648438 843.746094 1044.203125 837.976562 1042.886719 C 832.210938 1041.570312 826.417969 1040.382812 820.597656 1039.324219 C 814.773438 1038.269531 808.933594 1037.34375 803.070312 1036.546875 C 797.207031 1035.753906 791.332031 1035.089844 785.4375 1034.558594 C 779.546875 1034.027344 773.644531 1033.628906 767.734375 1033.363281 C 761.828125 1033.097656 755.914062 1032.964844 749.996094 1032.964844 C 744.082031 1032.964844 738.167969 1033.097656 732.257812 1033.363281 C 726.347656 1033.628906 720.449219 1034.027344 714.554688 1034.558594 C 708.664062 1035.089844 702.785156 1035.753906 696.921875 1036.546875 C 691.0625 1037.34375 685.21875 1038.269531 679.398438 1039.324219 C 673.578125 1040.382812 667.785156 1041.570312 662.015625 1042.886719 C 656.25 1044.203125 650.515625 1045.648438 644.8125 1047.226562 C 639.109375 1048.800781 633.445312 1050.503906 627.820312 1052.332031 C 622.191406 1054.160156 616.609375 1056.117188 611.074219 1058.195312 C 605.535156 1060.277344 600.046875 1062.480469 594.605469 1064.808594 C 589.167969 1067.132812 583.785156 1069.582031 578.453125 1072.152344 C 573.125 1074.71875 567.855469 1077.40625 562.648438 1080.210938 C 557.4375 1083.015625 552.296875 1085.9375 547.21875 1088.972656 C 542.140625 1092.011719 537.136719 1095.160156 532.199219 1098.421875 C 527.261719 1101.683594 522.402344 1105.050781 517.617188 1108.53125 C 512.835938 1112.011719 508.128906 1115.597656 503.507812 1119.289062 C 498.882812 1122.980469 494.34375 1126.769531 489.890625 1130.667969 Z M 489.890625 1130.667969 " fill-opacity="1" fill-rule="nonzero"/><path fill="#00bf63" d="M 1236.390625 904.351562 C 1228.222656 896.773438 1219.882812 889.390625 1211.371094 882.199219 C 1202.859375 875.011719 1194.183594 868.023438 1185.34375 861.242188 C 1176.507812 854.457031 1167.515625 847.886719 1158.367188 841.523438 C 1149.222656 835.160156 1139.929688 829.015625 1130.496094 823.089844 C 1121.0625 817.160156 1111.496094 811.457031 1101.792969 805.980469 C 1092.09375 800.5 1082.269531 795.25 1072.320312 790.230469 C 1062.375 785.210938 1052.316406 780.425781 1042.144531 775.875 C 1031.972656 771.328125 1021.703125 767.019531 1011.332031 762.949219 C 1000.957031 758.882812 990.496094 755.058594 979.945312 751.480469 C 969.394531 747.902344 958.765625 744.570312 948.058594 741.488281 C 937.351562 738.410156 926.578125 735.578125 915.738281 733.003906 C 904.898438 730.425781 894.003906 728.105469 883.054688 726.035156 C 872.105469 723.96875 861.117188 722.160156 850.082031 720.605469 C 839.050781 719.054688 827.988281 717.761719 816.894531 716.726562 C 805.800781 715.691406 794.6875 714.914062 783.558594 714.402344 C 772.429688 713.886719 761.292969 713.632812 750.152344 713.636719 C 739.007812 713.644531 727.875 713.910156 716.746094 714.4375 C 705.617188 714.964844 694.503906 715.753906 683.414062 716.800781 C 672.320312 717.847656 661.257812 719.15625 650.226562 720.71875 C 639.195312 722.285156 628.207031 724.109375 617.261719 726.1875 C 606.316406 728.265625 595.425781 730.601562 584.585938 733.191406 C 573.75 735.78125 562.980469 738.621094 552.277344 741.714844 C 541.574219 744.808594 530.949219 748.148438 520.402344 751.738281 C 509.851562 755.332031 499.394531 759.164062 489.027344 763.246094 C 478.660156 767.324219 468.394531 771.644531 458.226562 776.207031 C 448.0625 780.765625 438.007812 785.5625 428.066406 790.59375 C 418.125 795.625 408.308594 800.886719 398.613281 806.375 C 388.917969 811.867188 379.359375 817.582031 369.929688 823.519531 C 360.503906 829.457031 351.21875 835.613281 342.082031 841.984375 C 332.941406 848.359375 323.957031 854.941406 315.125 861.734375 C 306.292969 868.527344 297.625 875.523438 289.121094 882.722656 C 280.617188 889.921875 272.285156 897.3125 264.128906 904.902344 L 348.75 989.5 C 355.523438 983.292969 362.433594 977.246094 369.484375 971.359375 C 376.535156 965.472656 383.71875 959.753906 391.035156 954.199219 C 398.351562 948.644531 405.789062 943.265625 413.355469 938.054688 C 420.921875 932.847656 428.601562 927.816406 436.402344 922.960938 C 444.199219 918.109375 452.105469 913.441406 460.121094 908.953125 C 468.136719 904.46875 476.25 900.167969 484.464844 896.058594 C 492.679688 891.945312 500.984375 888.027344 509.378906 884.304688 C 517.773438 880.578125 526.25 877.046875 534.8125 873.714844 C 543.371094 870.382812 552 867.25 560.707031 864.316406 C 569.410156 861.382812 578.175781 858.652344 587.007812 856.128906 C 595.839844 853.601562 604.722656 851.277344 613.660156 849.164062 C 622.601562 847.050781 631.582031 845.140625 640.609375 843.445312 C 649.636719 841.746094 658.695312 840.253906 667.792969 838.976562 C 676.886719 837.699219 686.007812 836.628906 695.152344 835.773438 C 704.296875 834.917969 713.457031 834.273438 722.632812 833.839844 C 731.808594 833.410156 740.988281 833.191406 750.171875 833.183594 C 759.359375 833.175781 768.539062 833.382812 777.714844 833.800781 C 786.890625 834.21875 796.050781 834.851562 805.199219 835.695312 C 814.34375 836.539062 823.464844 837.59375 832.5625 838.859375 C 841.660156 840.125 850.722656 841.601562 859.753906 843.285156 C 868.78125 844.972656 877.765625 846.867188 886.707031 848.96875 C 895.648438 851.070312 904.539062 853.378906 913.371094 855.890625 C 922.207031 858.40625 930.976562 861.125 939.6875 864.042969 C 948.394531 866.964844 957.03125 870.085938 965.59375 873.40625 C 974.160156 876.726562 982.640625 880.242188 991.042969 883.957031 C 999.441406 887.671875 1007.753906 891.578125 1015.972656 895.675781 C 1024.191406 899.773438 1032.3125 904.0625 1040.335938 908.535156 C 1048.355469 913.011719 1056.269531 917.671875 1064.074219 922.511719 C 1071.878906 927.351562 1079.570312 932.375 1087.140625 937.570312 C 1094.714844 942.769531 1102.164062 948.140625 1109.488281 953.683594 C 1116.8125 959.226562 1124.003906 964.933594 1131.0625 970.8125 C 1138.121094 976.6875 1145.039062 982.726562 1151.820312 988.921875 Z M 1236.390625 904.351562 " fill-opacity="1" fill-rule="nonzero"/><path fill="#00bf63" d="M 1472.925781 667.839844 C 1460.875 656.402344 1448.558594 645.257812 1435.980469 634.40625 C 1423.398438 623.554688 1410.566406 613.007812 1397.484375 602.765625 C 1384.40625 592.519531 1371.085938 582.59375 1357.535156 572.980469 C 1343.984375 563.371094 1330.210938 554.085938 1316.214844 545.128906 C 1302.222656 536.171875 1288.027344 527.550781 1273.625 519.265625 C 1259.222656 510.980469 1244.628906 503.042969 1229.851562 495.453125 C 1215.074219 487.863281 1200.121094 480.625 1185 473.742188 C 1169.878906 466.863281 1154.601562 460.34375 1139.167969 454.1875 C 1123.734375 448.027344 1108.167969 442.242188 1092.460938 436.824219 C 1076.753906 431.40625 1060.925781 426.363281 1044.980469 421.699219 C 1029.035156 417.03125 1012.988281 412.746094 996.839844 408.839844 C 980.691406 404.933594 964.457031 401.414062 948.140625 398.28125 C 931.824219 395.144531 915.445312 392.398438 898.996094 390.042969 C 882.550781 387.683594 866.058594 385.71875 849.515625 384.144531 C 832.976562 382.570312 816.410156 381.390625 799.8125 380.601562 C 783.21875 379.8125 766.613281 379.417969 749.996094 379.417969 C 733.382812 379.417969 716.777344 379.8125 700.179688 380.601562 C 683.585938 381.390625 667.019531 382.570312 650.476562 384.144531 C 633.9375 385.71875 617.445312 387.683594 600.996094 390.042969 C 584.550781 392.398438 568.167969 395.144531 551.855469 398.28125 C 535.539062 401.414062 519.304688 404.933594 503.15625 408.839844 C 487.007812 412.746094 470.957031 417.03125 455.011719 421.699219 C 439.066406 426.363281 423.242188 431.40625 407.535156 436.824219 C 391.828125 442.242188 376.257812 448.027344 360.828125 454.1875 C 345.394531 460.34375 330.117188 466.863281 314.996094 473.742188 C 299.871094 480.625 284.921875 487.863281 270.144531 495.453125 C 255.363281 503.042969 240.773438 510.980469 226.371094 519.265625 C 211.96875 527.550781 197.769531 536.171875 183.777344 545.128906 C 169.785156 554.085938 156.011719 563.371094 142.460938 572.980469 C 128.90625 582.59375 115.589844 592.519531 102.507812 602.765625 C 89.425781 613.007812 76.597656 623.554688 64.015625 634.40625 C 51.433594 645.257812 39.117188 656.402344 27.066406 667.839844 L 111.609375 752.382812 C 122.277344 742.332031 133.171875 732.535156 144.300781 722.996094 C 155.429688 713.457031 166.78125 704.183594 178.347656 695.183594 C 189.914062 686.179688 201.6875 677.457031 213.664062 669.007812 C 225.644531 660.5625 237.816406 652.402344 250.179688 644.53125 C 262.546875 636.660156 275.089844 629.085938 287.8125 621.808594 C 300.535156 614.527344 313.421875 607.554688 326.472656 600.886719 C 339.527344 594.214844 352.726562 587.859375 366.082031 581.8125 C 379.433594 575.765625 392.921875 570.039062 406.542969 564.628906 C 420.167969 559.222656 433.910156 554.136719 447.773438 549.378906 C 461.636719 544.621094 475.605469 540.191406 489.675781 536.089844 C 503.75 531.992188 517.910156 528.226562 532.160156 524.796875 C 546.414062 521.367188 560.734375 518.273438 575.132812 515.523438 C 589.527344 512.769531 603.984375 510.355469 618.492188 508.285156 C 633.003906 506.214844 647.554688 504.488281 662.148438 503.105469 C 676.738281 501.722656 691.355469 500.6875 705.996094 499.996094 C 720.636719 499.300781 735.289062 498.957031 749.945312 498.957031 C 764.601562 498.957031 779.25 499.300781 793.890625 499.996094 C 808.535156 500.6875 823.152344 501.722656 837.742188 503.105469 C 852.335938 504.488281 866.886719 506.214844 881.394531 508.285156 C 895.90625 510.355469 910.359375 512.769531 924.757812 515.523438 C 939.152344 518.273438 953.476562 521.367188 967.726562 524.796875 C 981.976562 528.226562 996.140625 531.992188 1010.210938 536.089844 C 1024.285156 540.191406 1038.253906 544.621094 1052.117188 549.378906 C 1065.980469 554.136719 1079.722656 559.222656 1093.34375 564.628906 C 1106.96875 570.039062 1120.457031 575.765625 1133.808594 581.8125 C 1147.160156 587.859375 1160.363281 594.214844 1173.414062 600.886719 C 1186.46875 607.554688 1199.355469 614.527344 1212.078125 621.808594 C 1224.800781 629.085938 1237.34375 636.660156 1249.707031 644.53125 C 1262.074219 652.402344 1274.246094 660.5625 1286.222656 669.007812 C 1298.203125 677.457031 1309.976562 686.179688 1321.542969 695.183594 C 1333.109375 704.183594 1344.457031 713.457031 1355.585938 722.996094 C 1366.714844 732.535156 1377.613281 742.332031 1388.277344 752.382812 Z M 1472.925781 667.839844 " fill-opacity="1" fill-rule="nonzero"/><path fill="#00bf63" d="M 501.890625 1144.167969 L 586.699219 1228.945312 C 589.753906 1226.425781 592.859375 1223.976562 596.019531 1221.589844 C 599.183594 1219.207031 602.390625 1216.890625 605.652344 1214.644531 C 608.914062 1212.398438 612.21875 1210.226562 615.574219 1208.121094 C 618.929688 1206.019531 622.328125 1203.988281 625.769531 1202.03125 C 629.210938 1200.074219 632.691406 1198.191406 636.214844 1196.386719 C 639.738281 1194.578125 643.296875 1192.847656 646.894531 1191.195312 C 650.492188 1189.542969 654.125 1187.964844 657.789062 1186.46875 C 661.453125 1184.972656 665.148438 1183.554688 668.875 1182.214844 C 672.601562 1180.878906 676.355469 1179.621094 680.136719 1178.445312 C 683.917969 1177.269531 687.71875 1176.175781 691.546875 1175.164062 C 695.375 1174.152344 699.222656 1173.222656 703.089844 1172.375 C 706.957031 1171.53125 710.84375 1170.765625 714.742188 1170.085938 C 718.644531 1169.410156 722.558594 1168.8125 726.484375 1168.304688 C 730.410156 1167.792969 734.34375 1167.367188 738.289062 1167.027344 C 742.234375 1166.6875 746.183594 1166.429688 750.136719 1166.261719 C 754.09375 1166.089844 758.050781 1166.003906 762.011719 1166.003906 C 765.96875 1166.003906 769.925781 1166.089844 773.882812 1166.261719 C 777.835938 1166.429688 781.789062 1166.6875 785.730469 1167.027344 C 789.675781 1167.367188 793.613281 1167.792969 797.539062 1168.304688 C 801.464844 1168.8125 805.378906 1169.410156 809.277344 1170.085938 C 813.179688 1170.765625 817.0625 1171.53125 820.929688 1172.375 C 824.796875 1173.222656 828.644531 1174.152344 832.472656 1175.164062 C 836.300781 1176.175781 840.105469 1177.269531 843.882812 1178.445312 C 847.664062 1179.621094 851.417969 1180.878906 855.144531 1182.214844 C 858.871094 1183.554688 862.566406 1184.972656 866.230469 1186.46875 C 869.898438 1187.964844 873.527344 1189.542969 877.125 1191.195312 C 880.722656 1192.847656 884.28125 1194.578125 887.804688 1196.386719 C 891.328125 1198.191406 894.808594 1200.074219 898.253906 1202.03125 C 901.695312 1203.988281 905.089844 1206.019531 908.445312 1208.121094 C 911.800781 1210.226562 915.105469 1212.398438 918.367188 1214.644531 C 921.628906 1216.890625 924.839844 1219.207031 928 1221.589844 C 931.160156 1223.976562 934.269531 1226.425781 937.324219 1228.945312 L 1022.101562 1144.167969 C 1017.648438 1140.269531 1013.109375 1136.480469 1008.488281 1132.789062 C 1003.863281 1129.097656 999.160156 1125.511719 994.375 1122.03125 C 989.589844 1118.550781 984.730469 1115.183594 979.796875 1111.921875 C 974.859375 1108.660156 969.851562 1105.511719 964.777344 1102.472656 C 959.699219 1099.4375 954.554688 1096.515625 949.347656 1093.710938 C 944.136719 1090.90625 938.871094 1088.21875 933.539062 1085.652344 C 928.210938 1083.082031 922.828125 1080.632812 917.386719 1078.308594 C 911.949219 1075.980469 906.460938 1073.777344 900.921875 1071.695312 C 895.382812 1069.617188 889.800781 1067.660156 884.175781 1065.832031 C 878.550781 1064.003906 872.886719 1062.300781 867.183594 1060.726562 C 861.480469 1059.148438 855.746094 1057.703125 849.976562 1056.386719 C 844.210938 1055.070312 838.417969 1053.882812 832.597656 1052.824219 C 826.773438 1051.769531 820.933594 1050.84375 815.070312 1050.046875 C 809.207031 1049.253906 803.332031 1048.589844 797.4375 1048.058594 C 791.546875 1047.527344 785.644531 1047.128906 779.734375 1046.863281 C 773.828125 1046.597656 767.914062 1046.464844 761.996094 1046.464844 C 756.082031 1046.464844 750.167969 1046.597656 744.257812 1046.863281 C 738.347656 1047.128906 732.449219 1047.527344 726.554688 1048.058594 C 720.664062 1048.589844 714.785156 1049.253906 708.921875 1050.046875 C 703.0625 1050.84375 697.21875 1051.769531 691.398438 1052.824219 C 685.578125 1053.882812 679.785156 1055.070312 674.015625 1056.386719 C 668.25 1057.703125 662.515625 1059.148438 656.8125 1060.726562 C 651.109375 1062.300781 645.445312 1064.003906 639.820312 1065.832031 C 634.191406 1067.660156 628.609375 1069.617188 623.074219 1071.695312 C 617.535156 1073.777344 612.046875 1075.980469 606.605469 1078.308594 C 601.167969 1080.632812 595.785156 1083.082031 590.453125 1085.652344 C 585.125 1088.21875 579.855469 1090.90625 574.648438 1093.710938 C 569.4375 1096.515625 564.296875 1099.4375 559.21875 1102.472656 C 554.140625 1105.511719 549.136719 1108.660156 544.199219 1111.921875 C 539.261719 1115.183594 534.402344 1118.550781 529.617188 1122.03125 C 524.835938 1125.511719 520.128906 1129.097656 515.507812 1132.789062 C 510.882812 1136.480469 506.34375 1140.269531 501.890625 1144.167969 Z M 501.890625 1144.167969 " fill-opacity="1" fill-rule="nonzero"/><path fill="#00bf63" d="M 1248.390625 917.851562 C 1240.222656 910.273438 1231.882812 902.890625 1223.371094 895.699219 C 1214.859375 888.511719 1206.183594 881.523438 1197.34375 874.742188 C 1188.507812 867.957031 1179.515625 861.386719 1170.367188 855.023438 C 1161.222656 848.660156 1151.929688 842.515625 1142.496094 836.589844 C 1133.0625 830.660156 1123.496094 824.957031 1113.792969 819.480469 C 1104.09375 814 1094.269531 808.75 1084.320312 803.730469 C 1074.375 798.710938 1064.316406 793.925781 1054.144531 789.375 C 1043.972656 784.828125 1033.703125 780.519531 1023.332031 776.449219 C 1012.957031 772.382812 1002.496094 768.558594 991.945312 764.980469 C 981.394531 761.402344 970.765625 758.070312 960.058594 754.988281 C 949.351562 751.910156 938.578125 749.078125 927.738281 746.503906 C 916.898438 743.925781 906.003906 741.605469 895.054688 739.535156 C 884.105469 737.46875 873.117188 735.660156 862.082031 734.105469 C 851.050781 732.554688 839.988281 731.261719 828.894531 730.226562 C 817.800781 729.191406 806.6875 728.414062 795.558594 727.902344 C 784.429688 727.386719 773.292969 727.132812 762.152344 727.136719 C 751.007812 727.144531 739.875 727.410156 728.746094 727.9375 C 717.617188 728.464844 706.503906 729.253906 695.414062 730.300781 C 684.320312 731.347656 673.257812 732.65625 662.226562 734.21875 C 651.195312 735.785156 640.207031 737.609375 629.261719 739.6875 C 618.316406 741.765625 607.425781 744.101562 596.585938 746.691406 C 585.75 749.28125 574.980469 752.121094 564.277344 755.214844 C 553.574219 758.308594 542.949219 761.648438 532.402344 765.238281 C 521.851562 768.832031 511.394531 772.664062 501.027344 776.746094 C 490.660156 780.824219 480.394531 785.144531 470.226562 789.707031 C 460.0625 794.265625 450.007812 799.0625 440.066406 804.09375 C 430.125 809.125 420.308594 814.386719 410.613281 819.875 C 400.917969 825.367188 391.359375 831.082031 381.929688 837.019531 C 372.503906 842.957031 363.21875 849.113281 354.082031 855.484375 C 344.941406 861.859375 335.957031 868.441406 327.125 875.234375 C 318.292969 882.027344 309.625 889.023438 301.121094 896.222656 C 292.617188 903.421875 284.285156 910.8125 276.128906 918.402344 L 360.75 1003 C 367.523438 996.792969 374.433594 990.746094 381.484375 984.859375 C 388.535156 978.972656 395.71875 973.253906 403.035156 967.699219 C 410.351562 962.144531 417.789062 956.765625 425.355469 951.554688 C 432.921875 946.347656 440.601562 941.316406 448.402344 936.460938 C 456.199219 931.609375 464.105469 926.941406 472.121094 922.453125 C 480.136719 917.96875 488.25 913.667969 496.464844 909.558594 C 504.679688 905.445312 512.984375 901.527344 521.378906 897.804688 C 529.773438 894.078125 538.25 890.546875 546.8125 887.214844 C 555.371094 883.882812 564 880.75 572.707031 877.816406 C 581.410156 874.882812 590.175781 872.152344 599.007812 869.628906 C 607.839844 867.101562 616.722656 864.777344 625.660156 862.664062 C 634.601562 860.550781 643.582031 858.640625 652.609375 856.945312 C 661.636719 855.246094 670.695312 853.753906 679.792969 852.476562 C 688.886719 851.199219 698.007812 850.128906 707.152344 849.273438 C 716.296875 848.417969 725.457031 847.773438 734.632812 847.339844 C 743.808594 846.910156 752.988281 846.691406 762.171875 846.683594 C 771.359375 846.675781 780.539062 846.882812 789.714844 847.300781 C 798.890625 847.71875 808.050781 848.351562 817.199219 849.195312 C 826.34375 850.039062 835.464844 851.09375 844.5625 852.359375 C 853.660156 853.625 862.722656 855.101562 871.753906 856.785156 C 880.78125 858.472656 889.765625 860.367188 898.707031 862.46875 C 907.648438 864.570312 916.539062 866.878906 925.371094 869.390625 C 934.207031 871.90625 942.976562 874.625 951.6875 877.542969 C 960.394531 880.464844 969.03125 883.585938 977.59375 886.90625 C 986.160156 890.226562 994.640625 893.742188 1003.042969 897.457031 C 1011.441406 901.171875 1019.753906 905.078125 1027.972656 909.175781 C 1036.191406 913.273438 1044.3125 917.5625 1052.335938 922.035156 C 1060.355469 926.511719 1068.269531 931.171875 1076.074219 936.011719 C 1083.878906 940.851562 1091.570312 945.875 1099.140625 951.070312 C 1106.714844 956.269531 1114.164062 961.640625 1121.488281 967.183594 C 1128.8125 972.726562 1136.003906 978.433594 1143.0625 984.3125 C 1150.121094 990.1875 1157.039062 996.226562 1163.820312 1002.421875 Z M 1248.390625 917.851562 " fill-opacity="1" fill-rule="nonzero"/><path fill="#00bf63" d="M 1484.925781 681.339844 C 1472.875 669.902344 1460.558594 658.757812 1447.980469 647.90625 C 1435.398438 637.054688 1422.566406 626.507812 1409.484375 616.265625 C 1396.40625 606.019531 1383.085938 596.09375 1369.535156 586.480469 C 1355.984375 576.871094 1342.210938 567.585938 1328.214844 558.628906 C 1314.222656 549.671875 1300.027344 541.050781 1285.625 532.765625 C 1271.222656 524.480469 1256.628906 516.542969 1241.851562 508.953125 C 1227.074219 501.363281 1212.121094 494.125 1197 487.242188 C 1181.878906 480.363281 1166.601562 473.84375 1151.167969 467.6875 C 1135.734375 461.527344 1120.167969 455.742188 1104.460938 450.324219 C 1088.753906 444.90625 1072.925781 439.863281 1056.980469 435.199219 C 1041.035156 430.53125 1024.988281 426.246094 1008.839844 422.339844 C 992.691406 418.433594 976.457031 414.914062 960.140625 411.78125 C 943.824219 408.644531 927.445312 405.898438 910.996094 403.542969 C 894.550781 401.183594 878.058594 399.21875 861.515625 397.644531 C 844.976562 396.070312 828.410156 394.890625 811.8125 394.101562 C 795.21875 393.3125 778.613281 392.917969 761.996094 392.917969 C 745.382812 392.917969 728.777344 393.3125 712.179688 394.101562 C 695.585938 394.890625 679.019531 396.070312 662.476562 397.644531 C 645.9375 399.21875 629.445312 401.183594 612.996094 403.542969 C 596.550781 405.898438 580.167969 408.644531 563.855469 411.78125 C 547.539062 414.914062 531.304688 418.433594 515.15625 422.339844 C 499.007812 426.246094 482.957031 430.53125 467.011719 435.199219 C 451.066406 439.863281 435.242188 444.90625 419.535156 450.324219 C 403.828125 455.742188 388.257812 461.527344 372.828125 467.6875 C 357.394531 473.84375 342.117188 480.363281 326.996094 487.242188 C 311.871094 494.125 296.921875 501.363281 282.144531 508.953125 C 267.363281 516.542969 252.773438 524.480469 238.371094 532.765625 C 223.96875 541.050781 209.769531 549.671875 195.777344 558.628906 C 181.785156 567.585938 168.011719 576.871094 154.460938 586.480469 C 140.90625 596.09375 127.589844 606.019531 114.507812 616.265625 C 101.425781 626.507812 88.597656 637.054688 76.015625 647.90625 C 63.433594 658.757812 51.117188 669.902344 39.066406 681.339844 L 123.609375 765.882812 C 134.277344 755.832031 145.171875 746.035156 156.300781 736.496094 C 167.429688 726.957031 178.78125 717.683594 190.347656 708.683594 C 201.914062 699.679688 213.6875 690.957031 225.664062 682.507812 C 237.644531 674.0625 249.816406 665.902344 262.179688 658.03125 C 274.546875 650.160156 287.089844 642.585938 299.8125 635.308594 C 312.535156 628.027344 325.421875 621.054688 338.472656 614.386719 C 351.527344 607.714844 364.726562 601.359375 378.082031 595.3125 C 391.433594 589.265625 404.921875 583.539062 418.542969 578.128906 C 432.167969 572.722656 445.910156 567.636719 459.773438 562.878906 C 473.636719 558.121094 487.605469 553.691406 501.675781 549.589844 C 515.75 545.492188 529.910156 541.726562 544.160156 538.296875 C 558.414062 534.867188 572.734375 531.773438 587.132812 529.023438 C 601.527344 526.269531 615.984375 523.855469 630.492188 521.785156 C 645.003906 519.714844 659.554688 517.988281 674.148438 516.605469 C 688.738281 515.222656 703.355469 514.1875 717.996094 513.496094 C 732.636719 512.800781 747.289062 512.457031 761.945312 512.457031 C 776.601562 512.457031 791.25 512.800781 805.890625 513.496094 C 820.535156 514.1875 835.152344 515.222656 849.742188 516.605469 C 864.335938 517.988281 878.886719 519.714844 893.394531 521.785156 C 907.90625 523.855469 922.359375 526.269531 936.757812 529.023438 C 951.152344 531.773438 965.476562 534.867188 979.726562 538.296875 C 993.976562 541.726562 1008.140625 545.492188 1022.210938 549.589844 C 1036.285156 553.691406 1050.253906 558.121094 1064.117188 562.878906 C 1077.980469 567.636719 1091.722656 572.722656 1105.34375 578.128906 C 1118.96875 583.539062 1132.457031 589.265625 1145.808594 595.3125 C 1159.160156 601.359375 1172.363281 607.714844 1185.414062 614.386719 C 1198.46875 621.054688 1211.355469 628.027344 1224.078125 635.308594 C 1236.800781 642.585938 1249.34375 650.160156 1261.707031 658.03125 C 1274.074219 665.902344 1286.246094 674.0625 1298.222656 682.507812 C 1310.203125 690.957031 1321.976562 699.679688 1333.542969 708.683594 C 1345.109375 717.683594 1356.457031 726.957031 1367.585938 736.496094 C 1378.714844 746.035156 1389.613281 755.832031 1400.277344 765.882812 Z M 1484.925781 681.339844 " fill-opacity="1" fill-rule="nonzero"/></svg>